<svg width="28" height="29" viewBox="0 0 28 29"  xmlns="http://www.w3.org/2000/svg" >
<path fill-rule="evenodd" clip-rule="evenodd" d="M6.7522 16.7069C6.80327 16.7241 6.85482 16.7363 6.90631 16.7438C6.96247 16.8757 7.03503 17.0465 7.11968 17.2461C7.32627 17.7334 7.60463 18.3923 7.89195 19.0798C8.4779 20.4818 9.06895 21.9269 9.19949 22.3406C9.36108 22.852 9.53189 23.1996 9.71837 23.437C9.81478 23.5597 9.92629 23.6669 10.0568 23.7481C10.1225 23.7889 10.1918 23.8224 10.2643 23.8474C10.2675 23.8485 10.2707 23.8495 10.2738 23.8506C10.6472 23.9916 10.9876 23.9328 11.2007 23.8611C11.3147 23.8226 11.407 23.7762 11.4724 23.7387C11.5057 23.7195 11.5339 23.7016 11.5564 23.6865L11.5617 23.6829L14.8589 21.6267L18.6675 24.5466C18.7237 24.5897 18.785 24.6259 18.8499 24.6542C19.3075 24.8539 19.7505 24.9235 20.1674 24.8666C20.5834 24.8097 20.9138 24.6349 21.1597 24.4382C21.4005 24.2455 21.5638 24.0297 21.6654 23.8694C21.7173 23.7875 21.7563 23.7151 21.7838 23.6596C21.7976 23.6317 21.8087 23.6077 21.8173 23.5884L21.8283 23.563L21.8325 23.553L21.8342 23.5487L21.835 23.5468L21.8357 23.545C21.8557 23.4949 21.8711 23.4431 21.8816 23.3903L25.3585 5.86053C25.3696 5.80447 25.3752 5.74745 25.3752 5.6903C25.3752 5.17695 25.1818 4.68881 24.727 4.3926C24.3383 4.13944 23.9052 4.12854 23.6316 4.14931C23.3363 4.17172 23.0637 4.2446 22.8807 4.30284C22.7855 4.33314 22.7057 4.36238 22.6481 4.38469C22.6192 4.3959 22.5955 4.40552 22.5778 4.41286L22.5645 4.41844L3.06521 12.0677L3.06268 12.0687C3.05025 12.0732 3.0343 12.0791 3.01534 12.0865C2.97758 12.1012 2.92699 12.1219 2.8679 12.1487C2.75265 12.2009 2.59097 12.2826 2.42506 12.3962C2.16001 12.5777 1.55044 13.0748 1.65308 13.8953C1.73497 14.5499 2.18341 14.9519 2.45663 15.1453C2.60666 15.2514 2.74918 15.3273 2.85298 15.3767C2.90114 15.3997 3.00112 15.4403 3.0445 15.4579L3.05544 15.4623L6.7522 16.7069ZM23.247 6.02984L23.2442 6.03102C23.2345 6.03525 23.2248 6.03929 23.2149 6.04316L3.69188 13.7017C3.68168 13.7057 3.67142 13.7096 3.66108 13.7132L3.65021 13.7173C3.63772 13.7221 3.61669 13.7307 3.5903 13.7426C3.57534 13.7494 3.55972 13.7568 3.5438 13.7648C3.56567 13.7771 3.58661 13.7878 3.60521 13.7967C3.62308 13.8052 3.6367 13.811 3.64416 13.814L7.31056 15.0484C7.37767 15.0709 7.44023 15.1009 7.49765 15.137L19.6039 8.05006L19.6152 8.04336C19.6241 8.03815 19.6356 8.03145 19.6495 8.0236C19.6771 8.00803 19.7149 7.98729 19.7599 7.96437C19.844 7.92161 19.9784 7.85813 20.1298 7.81133C20.2353 7.77874 20.5462 7.68694 20.8823 7.79474C21.0897 7.86128 21.3045 8.00432 21.4442 8.24665C21.5136 8.36703 21.5506 8.48797 21.5685 8.59867C21.616 8.77307 21.6085 8.94527 21.5713 9.09395C21.4911 9.41421 21.2661 9.66402 21.0613 9.85509C20.8859 10.0189 18.6163 12.2074 16.3773 14.3678C15.2607 15.4452 14.1555 16.5119 13.3295 17.3093L12.7869 17.833L19.6375 23.0852C19.7946 23.1414 19.8875 23.1385 19.9305 23.1327C19.9817 23.1257 20.0236 23.106 20.0664 23.0717C20.1143 23.0334 20.1561 22.9817 20.1874 22.9324L20.1887 22.9303L23.5609 5.92852C23.5109 5.94055 23.4603 5.95487 23.4115 5.9704C23.3563 5.98798 23.3107 6.00473 23.2805 6.01643C23.2656 6.02223 23.2548 6.02662 23.2489 6.02905L23.247 6.02984ZM13.3755 20.4894L12.0087 19.4416L11.6776 21.5482L13.3755 20.4894ZM10.7549 17.3623L12.1141 16.0502C12.9402 15.2527 14.0455 14.1859 15.1621 13.1085L16.2967 12.0138L8.69002 16.4668L8.73084 16.563C8.93816 17.0519 9.21775 17.7138 9.5066 18.4049C9.72258 18.9217 9.94844 19.4659 10.1542 19.9696L10.4844 17.8691C10.5162 17.6666 10.6151 17.4913 10.7549 17.3623Z" />
</svg>
