<svg width="28" height="29" viewBox="0 0 28 29"  xmlns="http://www.w3.org/2000/svg" >
<path fill-rule="evenodd" clip-rule="evenodd" d="M27.3058 20.0265C26.6713 18.7484 25.8351 17.5809 24.8296 16.5688C24.4874 16.171 24.0861 15.7785 23.7729 15.472L23.7292 15.4292C23.5677 15.2711 23.4341 15.1398 23.3249 15.0268C24.6998 13.1149 25.8766 11.0676 26.8368 8.91659L26.8756 8.82981L26.9027 8.73872C27.0289 8.31535 27.1742 7.51027 26.6601 6.7827C26.1287 6.03069 25.2777 5.89507 24.7079 5.89507H22.0863C21.5398 5.87001 20.9986 6.01776 20.5401 6.31814C20.0781 6.62079 19.7247 7.06224 19.5303 7.57828C18.9656 8.92309 18.2592 10.2022 17.4238 11.3943V8.32214C17.4238 7.92502 17.3865 7.26071 16.9612 6.70001C16.4521 6.02866 15.7158 5.89507 15.2047 5.89507H11.0449C10.509 5.88267 9.98777 6.0743 9.58721 6.43202C9.177 6.79836 8.92561 7.31008 8.88636 7.85867L8.88264 7.91064V7.96274C8.88264 8.52913 9.10707 8.94693 9.28638 9.20968C9.36665 9.32732 9.45252 9.4344 9.50676 9.50204L9.51928 9.51765C9.57712 9.58977 9.61572 9.6379 9.65446 9.69061C9.75637 9.82923 9.90295 10.043 9.94442 10.596V12.3145C9.22729 11.1356 8.47077 9.56683 7.90156 7.89134L7.89283 7.86563L7.88314 7.84026C7.74121 7.46854 7.51357 6.92767 7.05765 6.51378C6.52503 6.03025 5.89505 5.89507 5.32212 5.89507H2.66219C2.08258 5.89507 1.38383 6.03066 0.862448 6.58066C0.34974 7.12151 0.291672 7.76958 0.291672 8.11416V8.26948L0.324384 8.42131C1.06114 11.8409 2.57923 15.0433 4.75938 17.7779C5.7478 19.3367 7.08713 20.6432 8.67082 21.5928C10.2798 22.5575 12.0949 23.1262 13.9667 23.252L14.0156 23.2553H14.0645C14.9113 23.2553 15.7941 23.1822 16.4579 22.7398C17.3534 22.1431 17.4238 21.2265 17.4238 20.7698V19.4422C17.6536 19.628 17.9388 19.8781 18.2878 20.2142C18.7098 20.6366 19.0458 21.0025 19.334 21.322L19.4878 21.493L19.4887 21.494C19.7125 21.7431 19.9328 21.9884 20.1333 22.1901C20.3854 22.4435 20.6962 22.7228 21.0869 22.9291C21.51 23.1525 21.954 23.2535 22.4256 23.2535H25.0874C25.6481 23.2535 26.4524 23.1209 27.0179 22.4653C27.6342 21.7508 27.5871 20.8751 27.3933 20.2458L27.3585 20.1326L27.3058 20.0265ZM20.6334 20.1497C20.3337 19.8176 19.9724 19.4238 19.5158 18.9673L19.512 18.9635C17.9299 17.4382 17.1907 17.1724 16.6679 17.1724C16.3899 17.1724 16.0823 17.2036 15.8826 17.4523C15.7884 17.5697 15.7389 17.7112 15.7111 17.8588C15.6834 18.0062 15.6738 18.1792 15.6738 18.3763V20.7698C15.6738 21.0671 15.625 21.1919 15.4875 21.2835C15.3043 21.4056 14.9129 21.5045 14.0743 21.5053C12.4826 21.3968 10.9392 20.9124 9.57074 20.0919C8.19954 19.2698 7.04327 18.1336 6.19719 16.777L6.18798 16.7622L6.17708 16.7487C4.14561 14.2202 2.73004 11.254 2.04202 8.08461C2.04575 7.93183 2.07886 7.84119 2.13248 7.78461C2.18775 7.72631 2.32166 7.64507 2.66219 7.64507H5.32212C5.61802 7.64507 5.77116 7.70943 5.88137 7.80948C6.00632 7.92292 6.11469 8.11554 6.24635 8.45949C6.89923 10.3798 7.78212 12.1756 8.61817 13.4961C9.03605 14.1561 9.44731 14.7054 9.81785 15.0937C10.0028 15.2874 10.1842 15.4481 10.3573 15.5622C10.5249 15.6727 10.7148 15.7599 10.9102 15.7599C11.0133 15.7599 11.1338 15.7493 11.2499 15.6979C11.3748 15.6426 11.4717 15.5504 11.5402 15.4269C11.6613 15.2085 11.6944 14.885 11.6944 14.4612V10.5368L11.6938 10.5276C11.6334 9.57288 11.3451 9.03584 11.0644 8.65405C11.0029 8.57037 10.9423 8.4948 10.8892 8.42866L10.8747 8.41053C10.8164 8.33786 10.77 8.27912 10.7319 8.22327C10.6621 8.12095 10.635 8.04961 10.6328 7.97316C10.6419 7.88241 10.6847 7.79821 10.7529 7.73729C10.8237 7.67405 10.9163 7.64113 11.0112 7.64507H15.2047C15.4451 7.64507 15.5261 7.70373 15.5669 7.75746C15.6244 7.83332 15.6738 7.99108 15.6738 8.32214V13.6055C15.6738 14.2331 15.9631 14.658 16.3833 14.658C16.8667 14.658 17.2152 14.3646 17.8246 13.7552L17.8348 13.745L17.8439 13.7339C19.2098 12.0682 20.3262 10.2125 21.1572 8.22501L21.1625 8.2101C21.2249 8.03449 21.3432 7.88413 21.4991 7.78199C21.655 7.67984 21.8401 7.63151 22.026 7.64437L22.0361 7.64507H24.7079C25.0723 7.64507 25.1922 7.7378 25.2309 7.79264C25.2722 7.851 25.3009 7.97605 25.2308 8.22129C24.2728 10.3638 23.0882 12.3974 21.6977 14.2881L21.6889 14.3015C21.5539 14.5079 21.4058 14.7363 21.3844 14.9986C21.3614 15.2803 21.4833 15.5363 21.6966 15.8107C21.8519 16.0405 22.1724 16.3542 22.4975 16.6725L22.5282 16.7025C22.8691 17.0361 23.2384 17.3976 23.5349 17.7475L23.5428 17.7568L23.5514 17.7654C24.4352 18.6469 25.17 19.6659 25.7274 20.7827C25.8163 21.0868 25.7618 21.2422 25.6927 21.3223C25.6118 21.4161 25.4306 21.5035 25.0874 21.5035H22.4256C22.2178 21.5035 22.0573 21.4625 21.9041 21.3816C21.7443 21.2972 21.58 21.163 21.374 20.9559C21.2081 20.7891 21.0268 20.5873 20.8057 20.3412C20.7508 20.2802 20.6935 20.2163 20.6334 20.1497Z" />
</svg>
