<svg width="28" height="29" viewBox="0 0 28 29" xmlns="http://www.w3.org/2000/svg" >
<path fill-rule="evenodd" clip-rule="evenodd" d="M12.1168 10.1002C11.8465 9.93805 11.5099 9.9338 11.2356 10.0891C10.9612 10.2444 10.7917 10.5353 10.7917 10.8505V17.8505C10.7917 18.1658 10.9612 18.4566 11.2356 18.612C11.5099 18.7673 11.8465 18.763 12.1168 18.6008L17.9502 15.1008C18.2137 14.9427 18.375 14.6579 18.375 14.3505C18.375 14.0432 18.2137 13.7584 17.9502 13.6002L12.1168 10.1002ZM15.7993 14.3505L12.5417 16.3051V12.396L15.7993 14.3505Z" />
<path fill-rule="evenodd" clip-rule="evenodd" d="M19.8691 5.76537C15.9624 5.45972 12.0377 5.45972 8.13094 5.76537L5.51679 5.96989C3.92713 6.09425 2.62666 7.28566 2.36389 8.85838C1.75633 12.4946 1.75633 16.2065 2.36389 19.8427C2.62666 21.4154 3.92713 22.6068 5.51679 22.7312L8.13094 22.9357C12.0377 23.2414 15.9624 23.2414 19.8691 22.9357L22.4833 22.7312C24.0729 22.6068 25.3734 21.4154 25.6362 19.8427C26.2437 16.2065 26.2437 12.4946 25.6362 8.85838C25.3734 7.28566 24.0729 6.09425 22.4833 5.96989L19.8691 5.76537ZM8.26744 7.51004C12.0833 7.2115 15.9167 7.2115 19.7326 7.51004L22.3468 7.71456C23.135 7.77622 23.7798 8.36696 23.9101 9.14678C24.4858 12.5921 24.4858 16.109 23.9101 19.5543C23.7798 20.3341 23.135 20.9249 22.3468 20.9865L19.7326 21.191C15.9167 21.4896 12.0833 21.4896 8.26744 21.191L5.65329 20.9865C4.86507 20.9249 4.22025 20.3341 4.08996 19.5543C3.5143 16.109 3.5143 12.5921 4.08996 9.14678C4.22025 8.36696 4.86507 7.77622 5.65329 7.71456L8.26744 7.51004Z" />
</svg>
