<svg width="28" height="29" viewBox="0 0 28 29" xmlns="http://www.w3.org/2000/svg" >
<path d="M18.6667 8.51714C18.6667 7.87281 19.189 7.35048 19.8333 7.35048C20.4777 7.35048 21 7.87281 21 8.51714C21 9.16148 20.4777 9.68381 19.8333 9.68381C19.189 9.68381 18.6667 9.16148 18.6667 8.51714Z"/>
<path fill-rule="evenodd" clip-rule="evenodd" d="M14 8.80881C10.9394 8.80881 8.45834 11.2899 8.45834 14.3505C8.45834 17.4111 10.9394 19.8921 14 19.8921C17.0606 19.8921 19.5417 17.4111 19.5417 14.3505C19.5417 11.2899 17.0606 8.80881 14 8.80881ZM10.2083 14.3505C10.2083 12.2564 11.9059 10.5588 14 10.5588C16.0941 10.5588 17.7917 12.2564 17.7917 14.3505C17.7917 16.4446 16.0941 18.1421 14 18.1421C11.9059 18.1421 10.2083 16.4446 10.2083 14.3505Z"/>
<path fill-rule="evenodd" clip-rule="evenodd" d="M20.1346 3.65566C16.0903 3.20365 11.9097 3.20365 7.8654 3.65566C5.518 3.91802 3.62294 5.7672 3.34697 8.12681C2.86334 12.2618 2.86334 16.4391 3.34697 20.5741C3.62294 22.9338 5.518 24.7829 7.8654 25.0453C11.9097 25.4973 16.0903 25.4973 20.1346 25.0453C22.482 24.7829 24.3771 22.9338 24.6531 20.5741C25.1367 16.4391 25.1367 12.2618 24.6531 8.12681C24.3771 5.7672 22.482 3.91802 20.1346 3.65566ZM8.05978 5.39483C11.9749 4.95726 16.0251 4.95726 19.9403 5.39483C21.492 5.56827 22.7351 6.79282 22.9149 8.33011C23.3827 12.3301 23.3827 16.3709 22.9149 20.3708C22.7351 21.9081 21.492 23.1327 19.9403 23.3061C16.0251 23.7437 11.9749 23.7437 8.05978 23.3061C6.50799 23.1327 5.26492 21.9081 5.08512 20.3708C4.61729 16.3709 4.61729 12.3301 5.08512 8.33011C5.26492 6.79282 6.50799 5.56827 8.05978 5.39483Z" />
</svg>
