<svg width="28" height="29" xmlns="http://www.w3.org/2000/svg"><path fill-rule="evenodd" clip-rule="evenodd" d="M27.306 20.026a13.293 13.293 0 0 0-2.476-3.457c-.343-.398-.744-.79-1.057-1.097l-.044-.043c-.161-.158-.295-.29-.404-.402a34.676 34.676 0 0 0 3.512-6.11l.039-.087.027-.091c.126-.424.271-1.229-.243-1.956-.531-.752-1.382-.888-1.952-.888h-2.622a2.604 2.604 0 0 0-2.556 1.683 20.436 20.436 0 0 1-2.106 3.816V8.322c0-.397-.037-1.061-.463-1.622-.509-.671-1.245-.805-1.756-.805h-4.16A2.115 2.115 0 0 0 8.886 7.86l-.003.052v.052c0 .566.224.984.403 1.247.08.117.167.224.22.292l.013.016c.058.072.097.12.135.173.102.138.249.352.29.905v1.719A23.084 23.084 0 0 1 7.902 7.89l-.01-.025-.009-.026c-.142-.371-.37-.912-.825-1.326-.533-.484-1.163-.619-1.736-.619h-2.66c-.58 0-1.278.136-1.8.686-.512.54-.57 1.189-.57 1.533v.155l.032.152a22.668 22.668 0 0 0 4.435 9.357 11.843 11.843 0 0 0 9.208 5.474l.049.003h.049c.846 0 1.73-.073 2.393-.515.895-.597.966-1.513.966-1.97v-1.328c.23.186.515.436.864.772.422.423.758.789 1.046 1.108l.154.171v.001c.224.25.445.494.645.696.252.253.563.533.954.74a2.81 2.81 0 0 0 1.339.323h2.661c.561 0 1.365-.132 1.93-.788.617-.714.57-1.59.376-2.22l-.035-.112-.052-.107Zm-6.673.124c-.3-.332-.66-.726-1.117-1.183l-.004-.003c-1.582-1.526-2.321-1.792-2.844-1.792-.278 0-.586.032-.785.28a.904.904 0 0 0-.172.407c-.028.147-.037.32-.037.517v2.394c0 .297-.049.422-.186.514-.184.122-.575.22-1.414.221a10.093 10.093 0 0 1-7.877-4.728l-.009-.015-.01-.013a20.919 20.919 0 0 1-4.136-8.664c.004-.153.037-.244.09-.3.056-.059.19-.14.53-.14h2.66c.296 0 .45.064.56.164.124.114.233.307.364.65.653 1.92 1.536 3.717 2.372 5.037.418.66.83 1.21 1.2 1.598.185.193.366.354.54.468.167.11.357.198.552.198.103 0 .224-.01.34-.062a.612.612 0 0 0 .29-.271c.121-.218.154-.542.154-.966v-3.934c-.06-.954-.349-1.491-.63-1.873a6.558 6.558 0 0 0-.175-.225l-.014-.018a3.133 3.133 0 0 1-.143-.188.454.454 0 0 1-.1-.25.365.365 0 0 1 .38-.328h4.193c.24 0 .321.059.362.112.057.076.107.234.107.565v5.284c0 .627.29 1.052.71 1.052.483 0 .831-.293 1.44-.903l.01-.01.01-.011a22.185 22.185 0 0 0 3.313-5.509l.006-.015a.854.854 0 0 1 .863-.566l.01.001h2.672c.364 0 .484.093.523.148.041.058.07.183 0 .428a32.923 32.923 0 0 1-3.533 6.067l-.01.014c-.134.206-.282.434-.304.697-.023.281.1.537.313.812.155.23.475.543.8.861l.031.03c.341.334.71.696 1.007 1.045l.008.01.008.008a11.54 11.54 0 0 1 2.176 3.018c.09.304.035.46-.034.54-.081.093-.262.18-.606.18h-2.661c-.208 0-.369-.04-.522-.121-.16-.085-.324-.219-.53-.426-.166-.167-.347-.369-.568-.615l-.173-.191Z"/></svg>