<svg width="16" height="16" fill="none" xmlns="http://www.w3.org/2000/svg"><path d="M6.871 4.813c.428-1.067.642-1.6.99-1.674a.666.666 0 0 1 .278 0c.347.074.561.607.99 1.674.243.607.364.91.592 1.117.064.058.133.11.207.154.263.159.592.188 1.25.247 1.112.1 1.668.15 1.838.466a.658.658 0 0 1 .07.21c.057.356-.352.728-1.17 1.472l-.227.207c-.382.348-.573.522-.684.739-.066.13-.11.27-.132.415-.034.241.022.493.134.998l.04.18c.2.905.3 1.358.175 1.58a.666.666 0 0 1-.549.339c-.255.012-.614-.28-1.333-.866-.473-.386-.71-.579-.973-.654a1.333 1.333 0 0 0-.735 0c-.262.075-.5.268-.973.654-.718.585-1.078.878-1.333.866a.667.667 0 0 1-.549-.339c-.125-.222-.025-.675.176-1.58l.04-.18c.112-.505.168-.757.133-.998a1.333 1.333 0 0 0-.131-.415c-.11-.217-.302-.391-.684-.74l-.227-.206c-.818-.744-1.227-1.116-1.17-1.471a.667.667 0 0 1 .07-.21c.17-.318.726-.368 1.838-.467.658-.06.986-.088 1.25-.247.073-.045.143-.096.207-.154.227-.206.349-.51.592-1.117Z" fill="#3971FF" stroke="#3971FF"/></svg>