<svg width="28" height="29" xmlns="http://www.w3.org/2000/svg"><path fill-rule="evenodd" clip-rule="evenodd" d="M6.752 16.707a.88.88 0 0 0 .154.037 398.357 398.357 0 0 1 .986 2.336c.586 1.402 1.177 2.847 1.307 3.26.162.512.333.86.52 1.097a1.16 1.16 0 0 0 .545.411c.004 0 .007.002.01.003.373.14.714.082.927.01a1.538 1.538 0 0 0 .355-.175l.006-.003 3.297-2.056 3.809 2.92a.853.853 0 0 0 .182.107c.457.2.9.27 1.317.213.416-.057.747-.232.993-.429a2.325 2.325 0 0 0 .657-.85l.011-.025.005-.01.001-.004.001-.002v-.002a.88.88 0 0 0 .047-.155l3.476-17.53a.876.876 0 0 0 .017-.17c0-.513-.193-1.001-.648-1.297-.389-.254-.822-.264-1.095-.244a3.376 3.376 0 0 0-.751.154 4.045 4.045 0 0 0-.303.11l-.014.005-19.499 7.65h-.002a2.026 2.026 0 0 0-.195.08 2.94 2.94 0 0 0-.443.248c-.265.182-.875.679-.772 1.5.082.654.53 1.056.804 1.25a2.707 2.707 0 0 0 .588.312l.01.004 3.697 1.245ZM23.247 6.03l-.003.001a.82.82 0 0 1-.03.012L3.693 13.702a.85.85 0 0 1-.03.011l-.012.004a1.204 1.204 0 0 0-.106.048 1.055 1.055 0 0 0 .1.049l3.667 1.234c.067.023.13.053.187.089L19.604 8.05l.011-.007a2.478 2.478 0 0 1 .145-.079c.084-.042.218-.106.37-.153.105-.032.416-.124.752-.016a.996.996 0 0 1 .686.804c.048.174.04.346.003.495-.08.32-.305.57-.51.761-.175.164-2.445 2.352-4.684 4.513l-3.047 2.941-.543.524 6.85 5.252c.158.056.25.053.293.048a.266.266 0 0 0 .136-.061.578.578 0 0 0 .121-.14l.002-.002 3.371-17a2.173 2.173 0 0 0-.312.1h-.002Zm-9.871 14.46-1.367-1.048-.331 2.106 1.697-1.059Zm-2.621-3.128 1.36-1.312 3.047-2.942 1.135-1.094-7.607 4.453.04.096a310.173 310.173 0 0 1 1.424 3.407l.33-2.1a.871.871 0 0 1 .27-.508Z"/></svg>