<svg width="28" height="29" xmlns="http://www.w3.org/2000/svg"><path d="M18.667 8.517a1.167 1.167 0 1 1 2.333 0 1.167 1.167 0 0 1-2.333 0Z"/><path fill-rule="evenodd" clip-rule="evenodd" d="M14 8.809a5.542 5.542 0 1 0 0 11.083A5.542 5.542 0 0 0 14 8.81Zm-3.792 5.542a3.792 3.792 0 1 1 7.584 0 3.792 3.792 0 0 1-7.584 0Z"/><path fill-rule="evenodd" clip-rule="evenodd" d="M20.135 3.656a55.675 55.675 0 0 0-12.27 0c-2.347.262-4.242 2.111-4.518 4.47a53.574 53.574 0 0 0 0 12.448c.276 2.36 2.171 4.209 4.518 4.471 4.045.452 8.225.452 12.27 0 2.347-.262 4.242-2.111 4.518-4.47a53.578 53.578 0 0 0 0-12.448c-.276-2.36-2.171-4.209-4.518-4.471ZM8.06 5.395a53.926 53.926 0 0 1 11.88 0c1.552.173 2.795 1.398 2.975 2.935a51.8 51.8 0 0 1 0 12.04c-.18 1.538-1.423 2.763-2.975 2.936a53.922 53.922 0 0 1-11.88 0c-1.552-.173-2.795-1.398-2.975-2.935a51.8 51.8 0 0 1 0-12.04c.18-1.538 1.423-2.763 2.975-2.936Z"/></svg>