<svg width="28" height="29" xmlns="http://www.w3.org/2000/svg"><path fill-rule="evenodd" clip-rule="evenodd" d="M12.117 10.1a.875.875 0 0 0-1.325.75v7a.875.875 0 0 0 1.325.75l5.833-3.5a.875.875 0 0 0 0-1.5l-5.833-3.5Zm3.682 4.25-3.257 1.955v-3.909l3.257 1.954Z"/><path fill-rule="evenodd" clip-rule="evenodd" d="M19.87 5.765a75.247 75.247 0 0 0-11.74 0l-2.613.205a3.471 3.471 0 0 0-3.153 2.888 33.326 33.326 0 0 0 0 10.985 3.471 3.471 0 0 0 3.153 2.888l2.614.205c3.907.305 7.831.305 11.738 0l2.614-.205a3.471 3.471 0 0 0 3.153-2.888 33.33 33.33 0 0 0 0-10.985 3.471 3.471 0 0 0-3.153-2.888l-2.614-.205ZM8.266 7.51a73.497 73.497 0 0 1 11.466 0l2.614.205a1.721 1.721 0 0 1 1.563 1.432 31.574 31.574 0 0 1 0 10.407c-.13.78-.775 1.37-1.563 1.433l-2.614.204c-3.816.299-7.65.299-11.466 0l-2.614-.204a1.721 1.721 0 0 1-1.563-1.433 31.576 31.576 0 0 1 0-10.407 1.72 1.72 0 0 1 1.563-1.432l2.614-.205Z"/></svg>