<svg width="230" height="35" fill="none" xmlns="http://www.w3.org/2000/svg"><path d="M0 .613h21.247v2.604h-3.284v11.335h3.284v2.643h-8.615v-2.643h2.009V3.217H6.606v11.335h2.009v2.643H0v-2.643h3.284V3.217H0V.613ZM32.303 0C34.93 0 37.03.791 38.6 2.374c1.597 1.583 2.395 3.766 2.395 6.549 0 2.783-.798 4.965-2.395 6.548-1.571 1.558-3.67 2.336-6.297 2.336-2.575 0-4.648-.778-6.22-2.336-1.544-1.583-2.317-3.765-2.317-6.548s.773-4.966 2.318-6.549C27.654.791 29.728 0 32.304 0Zm.039 2.719c-1.726 0-3.026.536-3.902 1.608-.876 1.073-1.313 2.604-1.313 4.596 0 1.966.438 3.497 1.313 4.595.876 1.072 2.176 1.608 3.902 1.608 1.751 0 3.065-.536 3.94-1.608.902-1.098 1.352-2.63 1.352-4.595 0-1.992-.45-3.523-1.352-4.596-.875-1.072-2.189-1.608-3.94-1.608ZM53.834.613H75.08v2.604h-3.283v11.335h3.283v2.643h-8.614v-2.643h2.009V3.217h-8.036v11.335h2.01v2.643h-8.615v-2.643h3.283V3.217h-3.283V.613ZM86.137 0c2.627 0 4.725.791 6.296 2.374C94.03 3.957 94.83 6.14 94.83 8.923c0 2.783-.799 4.965-2.395 6.548-1.572 1.558-3.67 2.336-6.297 2.336-2.576 0-4.649-.778-6.22-2.336-1.545-1.583-2.318-3.765-2.318-6.548s.773-4.966 2.318-6.549C81.488.791 83.561 0 86.137 0Zm.038 2.719c-1.725 0-3.026.536-3.901 1.608-.876 1.073-1.314 2.604-1.314 4.596 0 1.966.438 3.497 1.314 4.595.875 1.072 2.176 1.608 3.901 1.608 1.752 0 3.065-.536 3.94-1.608.902-1.098 1.353-2.63 1.353-4.595 0-1.992-.45-3.523-1.352-4.596-.876-1.072-2.19-1.608-3.94-1.608Zm10.732 14.743v-2.718c1.34.153 2.357-.077 3.052-.69.696-.612 1.185-1.493 1.468-2.642.309-1.175.515-2.502.618-3.983l.232-4.212h-3.4V.613h18.041v2.604h-3.554v11.335h3.631v2.643h-8.614v-2.643h1.661V3.217h-4.752l-.386 5.131c-.129 1.864-.489 3.523-1.082 4.979-.566 1.455-1.416 2.565-2.549 3.331-1.134.74-2.589 1.009-4.366.804ZM128.049 0c2.627 0 4.726.791 6.297 2.374 1.597 1.583 2.395 3.766 2.395 6.549 0 2.783-.798 4.965-2.395 6.548-1.571 1.558-3.67 2.336-6.297 2.336-2.575 0-4.648-.778-6.219-2.336-1.545-1.583-2.318-3.765-2.318-6.548s.773-4.966 2.318-6.549C123.401.791 125.474 0 128.049 0Zm.039 2.719c-1.726 0-3.026.536-3.902 1.608-.875 1.073-1.313 2.604-1.313 4.596 0 1.966.438 3.497 1.313 4.595.876 1.072 2.176 1.608 3.902 1.608 1.751 0 3.065-.536 3.94-1.608.902-1.098 1.352-2.63 1.352-4.595 0-1.992-.45-3.523-1.352-4.596-.875-1.072-2.189-1.608-3.94-1.608Zm23.962 7.276c-.541.357-1.249.702-2.125 1.034-.876.306-1.97.46-3.284.46-1.287 0-2.317-.192-3.09-.575-.773-.408-1.352-.932-1.738-1.57a6.373 6.373 0 0 1-.734-2.068 12.518 12.518 0 0 1-.116-2.183l.038-1.838h-3.283V.613h8.614v2.642h-2.008v1.417c0 .868.051 1.621.154 2.26.129.638.438 1.123.927 1.455.489.332 1.288.497 2.395.497.979 0 1.829-.14 2.55-.42.721-.282 1.288-.562 1.7-.843V3.293h-1.971V.651h8.576v2.642h-3.245v11.26h3.245v2.642h-9.85v-2.643h3.245V9.995Zm9.941-9.382h8.228v2.604h-1.661v4.48h3.4l2.858-4.48h-1.97V.613h8.383v2.604h-3.168l-3.592 5.59 3.708 5.745h3.284v2.643h-5.331l-4.404-6.894h-3.168v4.251h1.661v2.643h-8.228v-2.643h3.245V3.217h-3.245V.613Zm33.706 15.547c-1.725 1.098-3.554 1.647-5.485 1.647-4.507 0-6.774-1.723-6.799-5.17-.026-3.395 2.163-5.093 6.567-5.093l4.829.038c0-3.293-1.262-4.94-3.786-4.94-1.236 0-2.369.154-3.4.46l-.386 2.068-2.743-.46.657-3.638C187.16.357 189.091 0 190.946 0c2.369 0 4.159.638 5.369 1.915 1.211 1.25 1.816 3.089 1.816 5.514v6.625l3.592 1.15-.849 2.718-5.177-1.762Zm-5.601-6.088c-2.189 0-3.284.842-3.284 2.527 0 1.71 1.185 2.566 3.554 2.566 1.7 0 3.181-.46 4.443-1.379V10.11l-4.713-.038Zm12.94 7.123v-2.643h3.284V3.217h-3.284V.613h8.576l5.138 10.799 5.022-10.8H230v2.605h-3.284v11.335H230v2.643h-8.576v-2.643h2.009V2.834l-5.602 12.063h-2.395l-5.833-11.872v11.527h2.009v2.643h-8.576Z" fill="#37393E"/><path fill="#3971FF" d="M0 23.896h230v2.987H0zm0 7.468h230v2.987H0z"/></svg>