<svg xmlns="http://www.w3.org/2000/svg" xmlns:xlink="http://www.w3.org/1999/xlink"><symbol id="icon-arrow-left"><g fill="#3971FF"><path d="m6.706 10-.354-.354L6 10l.353.354.354-.354Zm4.588-5.295L6.352 9.646l.707.708 4.942-4.942-.707-.707Zm-4.942 5.649 4.942 4.94.707-.706-4.942-4.942-.707.708Z"/></g></symbol><symbol id="icon-arrow-right"><path d="M13.47 8.53a.75.75 0 0 1 1.06-1.06l4 4a.75.75 0 0 1 0 1.06l-4 4a.75.75 0 1 1-1.06-1.06l2.72-2.72H6.5a.75.75 0 0 1 0-1.5h9.69l-2.72-2.72Z"/></symbol><symbol id="icon-atom" viewBox="0 0 470 470"><g style="enable-background:new 0 0 470 470"><path style="fill:#082947" d="M462.5 242.5a7.5 7.5 0 0 1-7.5-7.5c0-38.635-88.401-80-220-80S15 196.365 15 235a7.5 7.5 0 0 1-15 0c0-26.693 25.372-51.152 71.441-68.872C115.249 149.279 173.335 140 235 140s119.751 9.279 163.559 26.128C444.628 183.848 470 208.307 470 235a7.5 7.5 0 0 1-7.5 7.5z"/><path style="fill:#274b6d" d="M121.243 439.522a7.465 7.465 0 0 1-3.743-1.006c-23.118-13.348-31.614-47.55-23.924-96.306 7.312-46.363 28.319-101.307 59.152-154.711 30.833-53.403 67.912-99.068 104.407-128.582 38.38-31.037 72.247-40.78 95.365-27.434a7.5 7.5 0 0 1-7.5 12.99C311.544 25.154 231.516 81.033 165.718 195 99.919 308.968 91.542 406.209 125 425.526a7.5 7.5 0 0 1-3.757 13.996z"/><path style="fill:#6da8d6" d="M329.625 444.347c-20.431.002-45.329-11.299-72.49-33.264-36.495-29.515-73.574-75.179-104.407-128.583-30.833-53.404-51.84-108.348-59.152-154.71-7.689-48.757.807-82.959 23.924-96.306a7.5 7.5 0 0 1 7.5 12.99c-17.112 9.88-23.166 39.396-16.607 80.979 7.032 44.588 27.391 97.698 57.325 149.547 57.217 99.103 125.197 154.279 163.955 154.285 5.813.001 10.963-1.239 15.327-3.759a7.5 7.5 0 0 1 7.5 12.99c-6.757 3.902-14.437 5.831-22.875 5.831z"/><path style="fill:#082947" d="M235 330c-61.666 0-119.752-9.279-163.559-26.128C25.372 286.153 0 261.693 0 235c0-4.143 3.358-7.5 7.5-7.5s7.5 3.357 7.5 7.5c0 38.635 88.401 80 220 80s220-41.365 220-80c0-4.143 3.358-7.5 7.5-7.5s7.5 3.357 7.5 7.5c0 26.693-25.372 51.153-71.441 68.872C354.752 320.721 296.666 330 235 330z"/><circle style="fill:#6da8d6" cx="49.397" cy="185.057" r="20"/><circle style="fill:#f2484b" cx="284.949" cy="421.749" r="19.997"/><circle style="fill:#f2484b" cx="98.346" cy="98.543" r="19.997"/><circle style="fill:#f48205" cx="235" cy="235" r="45"/><path style="fill:#274b6d" d="M140.375 444.347c-8.44 0-16.116-1.928-22.875-5.83a7.5 7.5 0 0 1 7.5-12.99c33.458 19.32 113.483-36.56 179.282-150.526 29.935-51.849 50.293-104.959 57.325-149.547 6.558-41.583.505-71.099-16.607-80.979a7.5 7.5 0 0 1 7.5-12.99c23.118 13.347 31.614 47.549 23.924 96.306-7.312 46.362-28.319 101.306-59.152 154.71-30.833 53.404-67.912 99.068-104.407 128.583-27.159 21.962-52.06 33.263-72.49 33.263z"/><path style="fill:#6da8d6" d="M348.757 439.522A7.5 7.5 0 0 1 345 425.526c33.458-19.317 25.081-116.559-40.718-230.526S158.458 25.158 125 44.474a7.5 7.5 0 0 1-7.5-12.99c23.119-13.348 56.986-3.604 95.365 27.434 36.496 29.514 73.575 75.179 104.407 128.582 30.833 53.404 51.84 108.348 59.152 154.711 7.689 48.756-.807 82.958-23.924 96.306a7.474 7.474 0 0 1-3.743 1.005z"/><circle style="fill:#6da8d6" cx="371.654" cy="98.543" r="19.997"/></g></symbol><symbol id="icon-bag"><g fill="none"><path d="M8 8V7a4 4 0 0 1 4-4v0a4 4 0 0 1 4 4v1m-1 6v-2m-6 2v-2" stroke="#fff" stroke-width="2" stroke-linecap="round"/><path d="M4 12c0-1.886 0-2.828.586-3.414C5.172 8 6.114 8 8 8h8c1.886 0 2.828 0 3.414.586C20 9.172 20 10.114 20 12v1c0 3.771 0 5.657-1.172 6.828C17.657 21 15.771 21 12 21c-3.771 0-5.657 0-6.828-1.172C4 18.657 4 16.771 4 13v-1Z" stroke="#fff" stroke-width="2"/></g></symbol><symbol id="icon-check"><g fill="none"><path fill-rule="evenodd" clip-rule="evenodd" d="M9.091.242a.6.6 0 0 0-.849 0L4 4.485 1.758 2.242a.6.6 0 1 0-.849.849l2.667 2.667a.6.6 0 0 0 .848 0L9.091 1.09a.6.6 0 0 0 0-.849Z" fill="#37393E"/></g></symbol><symbol id="icon-inst"><path d="M18.667 8.517a1.167 1.167 0 1 1 2.333 0 1.167 1.167 0 0 1-2.333 0Z"/><path fill-rule="evenodd" clip-rule="evenodd" d="M14 8.809a5.542 5.542 0 1 0 0 11.083A5.542 5.542 0 0 0 14 8.81Zm-3.792 5.542a3.792 3.792 0 1 1 7.584 0 3.792 3.792 0 0 1-7.584 0Z"/><path fill-rule="evenodd" clip-rule="evenodd" d="M20.135 3.656a55.675 55.675 0 0 0-12.27 0c-2.347.262-4.242 2.111-4.518 4.47a53.574 53.574 0 0 0 0 12.448c.276 2.36 2.171 4.209 4.518 4.471 4.045.452 8.225.452 12.27 0 2.347-.262 4.242-2.111 4.518-4.47a53.578 53.578 0 0 0 0-12.448c-.276-2.36-2.171-4.209-4.518-4.471ZM8.06 5.395a53.926 53.926 0 0 1 11.88 0c1.552.173 2.795 1.398 2.975 2.935a51.8 51.8 0 0 1 0 12.04c-.18 1.538-1.423 2.763-2.975 2.936a53.922 53.922 0 0 1-11.88 0c-1.552-.173-2.795-1.398-2.975-2.935a51.8 51.8 0 0 1 0-12.04c.18-1.538 1.423-2.763 2.975-2.936Z"/></symbol><symbol id="icon-search"><g fill="none"><circle cx="11" cy="11" r="7" stroke="#3971FF" stroke-width="2"/><path d="m20 20-3-3" stroke="#3971FF" stroke-width="2" stroke-linecap="round"/></g></symbol><symbol id="icon-star-blue"><g fill="none"><path d="M6.871 4.813c.428-1.067.642-1.6.99-1.674a.666.666 0 0 1 .278 0c.347.074.561.607.99 1.674.243.607.364.91.592 1.117.064.058.133.11.207.154.263.159.592.188 1.25.247 1.112.1 1.668.15 1.838.466a.658.658 0 0 1 .07.21c.057.356-.352.728-1.17 1.472l-.227.207c-.382.348-.573.522-.684.739-.066.13-.11.27-.132.415-.034.241.022.493.134.998l.04.18c.2.905.3 1.358.175 1.58a.666.666 0 0 1-.549.339c-.255.012-.614-.28-1.333-.866-.473-.386-.71-.579-.973-.654a1.333 1.333 0 0 0-.735 0c-.262.075-.5.268-.973.654-.718.585-1.078.878-1.333.866a.667.667 0 0 1-.549-.339c-.125-.222-.025-.675.176-1.58l.04-.18c.112-.505.168-.757.133-.998a1.333 1.333 0 0 0-.131-.415c-.11-.217-.302-.391-.684-.74l-.227-.206c-.818-.744-1.227-1.116-1.17-1.471a.667.667 0 0 1 .07-.21c.17-.318.726-.368 1.838-.467.658-.06.986-.088 1.25-.247.073-.045.143-.096.207-.154.227-.206.349-.51.592-1.117Z" fill="#3971FF" stroke="#3971FF"/></g></symbol><symbol id="icon-star"><g fill="none"><path d="M6.872 4.813c.428-1.067.642-1.6.99-1.674a.666.666 0 0 1 .277 0c.347.074.561.607.99 1.674.243.607.365.91.592 1.117.064.058.134.11.207.154.264.158.592.188 1.25.247 1.112.1 1.668.15 1.838.466.035.066.06.137.07.21.057.356-.352.728-1.17 1.472l-.227.207c-.382.348-.573.522-.684.739-.066.13-.11.27-.132.415-.034.241.022.493.134.998l.04.18c.2.905.3 1.358.175 1.58a.667.667 0 0 1-.548.339c-.255.012-.615-.28-1.333-.866-.474-.386-.71-.58-.973-.654a1.333 1.333 0 0 0-.736 0c-.262.075-.5.268-.973.654-.718.585-1.077.878-1.333.866a.667.667 0 0 1-.549-.339c-.125-.222-.024-.675.176-1.58l.04-.18c.112-.505.168-.757.134-.998a1.333 1.333 0 0 0-.132-.415c-.11-.217-.302-.391-.684-.74l-.227-.206c-.818-.744-1.227-1.116-1.17-1.471a.667.667 0 0 1 .07-.21c.17-.318.726-.368 1.839-.467.657-.06.985-.089 1.249-.247.073-.045.143-.096.207-.154.227-.206.35-.51.593-1.117Z" fill="#fff" stroke="#fff"/></g></symbol><symbol id="icon-telegram"><path fill-rule="evenodd" clip-rule="evenodd" d="M6.752 16.707a.88.88 0 0 0 .154.037 398.357 398.357 0 0 1 .986 2.336c.586 1.402 1.177 2.847 1.307 3.26.162.512.333.86.52 1.097a1.16 1.16 0 0 0 .545.411c.004 0 .007.002.01.003.373.14.714.082.927.01a1.538 1.538 0 0 0 .355-.175l.006-.003 3.297-2.056 3.809 2.92a.853.853 0 0 0 .182.107c.457.2.9.27 1.317.213.416-.057.747-.232.993-.429a2.325 2.325 0 0 0 .657-.85l.011-.025.005-.01.001-.004.001-.002v-.002a.88.88 0 0 0 .047-.155l3.476-17.53a.876.876 0 0 0 .017-.17c0-.513-.193-1.001-.648-1.297-.389-.254-.822-.264-1.095-.244a3.376 3.376 0 0 0-.751.154 4.045 4.045 0 0 0-.303.11l-.014.005-19.499 7.65h-.002a2.026 2.026 0 0 0-.195.08 2.94 2.94 0 0 0-.443.248c-.265.182-.875.679-.772 1.5.082.654.53 1.056.804 1.25a2.707 2.707 0 0 0 .588.312l.01.004 3.697 1.245ZM23.247 6.03l-.003.001a.82.82 0 0 1-.03.012L3.693 13.702a.85.85 0 0 1-.03.011l-.012.004a1.204 1.204 0 0 0-.106.048 1.055 1.055 0 0 0 .1.049l3.667 1.234c.067.023.13.053.187.089L19.604 8.05l.011-.007a2.478 2.478 0 0 1 .145-.079c.084-.042.218-.106.37-.153.105-.032.416-.124.752-.016a.996.996 0 0 1 .686.804c.048.174.04.346.003.495-.08.32-.305.57-.51.761-.175.164-2.445 2.352-4.684 4.513l-3.047 2.941-.543.524 6.85 5.252c.158.056.25.053.293.048a.266.266 0 0 0 .136-.061.578.578 0 0 0 .121-.14l.002-.002 3.371-17a2.173 2.173 0 0 0-.312.1h-.002Zm-9.871 14.46-1.367-1.048-.331 2.106 1.697-1.059Zm-2.621-3.128 1.36-1.312 3.047-2.942 1.135-1.094-7.607 4.453.04.096a310.173 310.173 0 0 1 1.424 3.407l.33-2.1a.871.871 0 0 1 .27-.508Z"/></symbol><symbol id="icon-vk"><path fill-rule="evenodd" clip-rule="evenodd" d="M27.306 20.026a13.293 13.293 0 0 0-2.476-3.457c-.343-.398-.744-.79-1.057-1.097l-.044-.043c-.161-.158-.295-.29-.404-.402a34.676 34.676 0 0 0 3.512-6.11l.039-.087.027-.091c.126-.424.271-1.229-.243-1.956-.531-.752-1.382-.888-1.952-.888h-2.622a2.604 2.604 0 0 0-2.556 1.683 20.436 20.436 0 0 1-2.106 3.816V8.322c0-.397-.037-1.061-.463-1.622-.509-.671-1.245-.805-1.756-.805h-4.16A2.115 2.115 0 0 0 8.886 7.86l-.003.052v.052c0 .566.224.984.403 1.247.08.117.167.224.22.292l.013.016c.058.072.097.12.135.173.102.138.249.352.29.905v1.719A23.084 23.084 0 0 1 7.902 7.89l-.01-.025-.009-.026c-.142-.371-.37-.912-.825-1.326-.533-.484-1.163-.619-1.736-.619h-2.66c-.58 0-1.278.136-1.8.686-.512.54-.57 1.189-.57 1.533v.155l.032.152a22.668 22.668 0 0 0 4.435 9.357 11.843 11.843 0 0 0 9.208 5.474l.049.003h.049c.846 0 1.73-.073 2.393-.515.895-.597.966-1.513.966-1.97v-1.328c.23.186.515.436.864.772.422.423.758.789 1.046 1.108l.154.171v.001c.224.25.445.494.645.696.252.253.563.533.954.74a2.81 2.81 0 0 0 1.339.323h2.661c.561 0 1.365-.132 1.93-.788.617-.714.57-1.59.376-2.22l-.035-.112-.052-.107Zm-6.673.124c-.3-.332-.66-.726-1.117-1.183l-.004-.003c-1.582-1.526-2.321-1.792-2.844-1.792-.278 0-.586.032-.785.28a.904.904 0 0 0-.172.407c-.028.147-.037.32-.037.517v2.394c0 .297-.049.422-.186.514-.184.122-.575.22-1.414.221a10.093 10.093 0 0 1-7.877-4.728l-.009-.015-.01-.013a20.919 20.919 0 0 1-4.136-8.664c.004-.153.037-.244.09-.3.056-.059.19-.14.53-.14h2.66c.296 0 .45.064.56.164.124.114.233.307.364.65.653 1.92 1.536 3.717 2.372 5.037.418.66.83 1.21 1.2 1.598.185.193.366.354.54.468.167.11.357.198.552.198.103 0 .224-.01.34-.062a.612.612 0 0 0 .29-.271c.121-.218.154-.542.154-.966v-3.934c-.06-.954-.349-1.491-.63-1.873a6.558 6.558 0 0 0-.175-.225l-.014-.018a3.133 3.133 0 0 1-.143-.188.454.454 0 0 1-.1-.25.365.365 0 0 1 .38-.328h4.193c.24 0 .321.059.362.112.057.076.107.234.107.565v5.284c0 .627.29 1.052.71 1.052.483 0 .831-.293 1.44-.903l.01-.01.01-.011a22.185 22.185 0 0 0 3.313-5.509l.006-.015a.854.854 0 0 1 .863-.566l.01.001h2.672c.364 0 .484.093.523.148.041.058.07.183 0 .428a32.923 32.923 0 0 1-3.533 6.067l-.01.014c-.134.206-.282.434-.304.697-.023.281.1.537.313.812.155.23.475.543.8.861l.031.03c.341.334.71.696 1.007 1.045l.008.01.008.008a11.54 11.54 0 0 1 2.176 3.018c.09.304.035.46-.034.54-.081.093-.262.18-.606.18h-2.661c-.208 0-.369-.04-.522-.121-.16-.085-.324-.219-.53-.426-.166-.167-.347-.369-.568-.615l-.173-.191Z"/></symbol><symbol id="icon-yt"><path fill-rule="evenodd" clip-rule="evenodd" d="M12.117 10.1a.875.875 0 0 0-1.325.75v7a.875.875 0 0 0 1.325.75l5.833-3.5a.875.875 0 0 0 0-1.5l-5.833-3.5Zm3.682 4.25-3.257 1.955v-3.909l3.257 1.954Z"/><path fill-rule="evenodd" clip-rule="evenodd" d="M19.87 5.765a75.247 75.247 0 0 0-11.74 0l-2.613.205a3.471 3.471 0 0 0-3.153 2.888 33.326 33.326 0 0 0 0 10.985 3.471 3.471 0 0 0 3.153 2.888l2.614.205c3.907.305 7.831.305 11.738 0l2.614-.205a3.471 3.471 0 0 0 3.153-2.888 33.33 33.33 0 0 0 0-10.985 3.471 3.471 0 0 0-3.153-2.888l-2.614-.205ZM8.266 7.51a73.497 73.497 0 0 1 11.466 0l2.614.205a1.721 1.721 0 0 1 1.563 1.432 31.574 31.574 0 0 1 0 10.407c-.13.78-.775 1.37-1.563 1.433l-2.614.204c-3.816.299-7.65.299-11.466 0l-2.614-.204a1.721 1.721 0 0 1-1.563-1.433 31.576 31.576 0 0 1 0-10.407 1.72 1.72 0 0 1 1.563-1.432l2.614-.205Z"/></symbol></svg>